<?xml version="1.0" encoding="utf-8" ?>
<svg baseProfile="full" height="100%" version="1.1" viewBox="-50.0,-50.0,580.0,100.0" width="100%" xmlns="http://www.w3.org/2000/svg" xmlns:ev="http://www.w3.org/2001/xml-events" xmlns:xlink="http://www.w3.org/1999/xlink"><defs /><g fill="white" id="lines" stroke="black" stroke-width="2.0"><polygon fill="#ffc2c2" points="1.330380210475479,19.95570315713218 61.06430416838038,11.964562525705746 58.93569583161962,-19.964562525705745 -1.330380210475479,-19.95570315713218" /><polygon fill="gray" points="57.62655275311609,11.822981645892764 97.92323365897657,15.845108940156166 102.07676634102343,-11.845108940156162 62.37344724688391,-19.82298164589276" /><polygon fill="gray" points="120.46640762325694,15.992228697708162 180.3997779627917,11.993338883749853 179.6002220372083,-11.993338883749853 119.53359237674306,-11.992228697708162" /><polygon fill="#c2caff" points="180.0,12.0 220.0,10.0 220.0,-10.0 180.0,-12.0" /><polygon fill="lightgray" points="271.3303802104755,19.95570315713218 331.0643041683804,11.964562525705746 327.6265527531161,11.822981645892764 367.9232336589766,15.845108940156166 372.0767663410234,-11.845108940156162 332.3734472468839,-19.82298164589276 328.9356958316196,-19.964562525705745 268.6696197895245,-19.95570315713218" /><polygon fill="lightgray" points="390.46640762325694,15.992228697708162 450.3997779627917,11.993338883749853 450.0,12.0 490.0,10.0 490.0,-10.0 450.0,-12.0 449.6002220372083,-11.993338883749853 389.53359237674306,-11.992228697708162" /></g><g fill="red" id="points" stroke="red" stroke-width="2.0"><circle cx="30.0" cy="-2.0" fill="white" r="11.0" stroke="black" /><circle cx="80.0" cy="-0.9999999999999998" fill="white" r="11.0" stroke="black" /><circle cx="150.0" cy="1.0" fill="white" r="11.0" stroke="black" /><circle cx="200.0" cy="-0.0" fill="white" r="11.0" stroke="black" /><circle cx="369.72934875606285" cy="1.9594023134094274" fill="mediumslateblue" r="11.0" stroke="mediumslateblue" /></g><g alignment-baseline="middle" id="numbers" text-anchor="middle"><text fill="black" stroke="black" x="30.0" y="4.666666666666667">0</text><text fill="black" stroke="black" x="80.0" y="5.666666666666667">1</text><text fill="black" stroke="black" x="150.0" y="7.666666666666667">2</text><text fill="black" stroke="black" x="200.0" y="6.666666666666667">3</text><text fill="white" stroke="white" x="369.72934875606285" y="8.626068980076095">0</text></g></svg>