<?xml version="1.0" encoding="utf-8" ?>
<svg baseProfile="full" height="100%" version="1.1" viewBox="-50.0,-50.0,540.0,100.0" width="100%" xmlns="http://www.w3.org/2000/svg" xmlns:ev="http://www.w3.org/2001/xml-events" xmlns:xlink="http://www.w3.org/1999/xlink"><defs /><g fill="white" id="lines" stroke="black" stroke-width="2.0"><polygon fill="#ffc2c2" points="1.330380210475479,19.95570315713218 61.06430416838038,11.964562525705746 58.93569583161962,-19.964562525705745 -1.330380210475479,-19.95570315713218" /><polygon fill="gray" points="57.62655275311609,11.822981645892764 97.92323365897657,15.845108940156166 102.07676634102343,-11.845108940156162 62.37344724688391,-19.82298164589276" /><polygon fill="gray" points="100.46640762325694,15.992228697708162 160.3997779627917,11.993338883749853 159.60022203720834,-11.993338883749853 99.53359237674306,-11.992228697708162" /><polygon fill="#c2caff" points="160.0,12.0 200.0,10.0 200.0,-10.0 160.0,-12.0" /><polygon fill="lightgray" points="251.33038021047548,19.95570315713218 311.0643041683804,11.964562525705746 307.6265527531161,11.822981645892764 347.9232336589766,15.845108940156166 350.46640762325694,15.992228697708162 410.3997779627917,11.993338883749853 410.0,12.0 450.0,10.0 450.0,-10.0 410.0,-12.0 409.60022203720837,-11.993338883749853 349.53359237674306,-11.992228697708162 352.0767663410234,-11.845108940156162 312.3734472468839,-19.82298164589276 308.9356958316196,-19.964562525705745 248.66961978952452,-19.95570315713218" /></g><g fill="red" id="points" stroke="red" stroke-width="2.0"><circle cx="30.0" cy="-2.0" fill="white" r="11.0" stroke="black" /><circle cx="80.0" cy="-0.9999999999999998" fill="white" r="11.0" stroke="black" /><circle cx="130.0" cy="1.0" fill="white" r="11.0" stroke="black" /><circle cx="180.0" cy="-0.0" fill="white" r="11.0" stroke="black" /><circle cx="349.72934875606285" cy="1.9594023134094274" fill="mediumslateblue" r="11.0" stroke="mediumslateblue" /></g><g alignment-baseline="middle" id="numbers" text-anchor="middle"><text fill="black" stroke="black" x="30.0" y="4.666666666666667">0</text><text fill="black" stroke="black" x="80.0" y="5.666666666666667">1</text><text fill="black" stroke="black" x="130.0" y="7.666666666666667">2</text><text fill="black" stroke="black" x="180.0" y="6.666666666666667">3</text><text fill="white" stroke="white" x="349.72934875606285" y="8.626068980076095">0</text></g></svg>