<?xml version="1.0" encoding="utf-8" ?>
<svg baseProfile="full" height="100%" version="1.1" viewBox="-238.0,-154.0,1544.0,328.0" width="100%" xmlns="http://www.w3.org/2000/svg" xmlns:ev="http://www.w3.org/2001/xml-events" xmlns:xlink="http://www.w3.org/1999/xlink"><defs /><g fill="white" id="lines" stroke="black" stroke-width="2.0"><polygon fill="#ffc2c2" points="0.0,40.0 80.0,40.0 80.0,-40.0 0.0,-40.0" /><polygon fill="#c2caff" points="100.0,16.0 160.0,16.0 160.0,-16.0 100.0,-16.0" /><polygon fill="#c2caff" points="158.01544424657266,15.876446027418684 238.01544424657266,25.876446027418684 241.98455575342734,-5.876446027418685 161.98455575342734,-15.876446027418684" /><polygon fill="#c2caff" points="247.84417983412095,23.94520859399279 403.9220899170605,-73.0273957030036 396.0779100829395,-86.9726042969964 232.15582016587905,-3.9452085939927883" /><polygon fill="#c2caff" points="402.5298221281347,-72.41053361559588 521.2649110640673,-116.20526680779795 518.7350889359327,-123.79473319220205 397.4701778718653,-87.58946638440412" /><polygon fill="#c2caff" points="236.63663603001845,19.417419115948373 376.63663603001845,69.41741911594838 383.36336396998155,50.58258088405162 243.36336396998155,0.5825808840516256" /><polygon fill="#c2caff" points="373.7530495244557,67.80868809443031 477.5012198097823,143.12347523777214 482.4987801902177,136.87652476222786 386.2469504755443,52.19131190556969" /><polygon fill="#c2caff" points="384.4721359549996,68.94427190999916 461.78885438199984,23.577708763999663 458.21114561800016,16.422291236000337 375.5278640450004,51.05572809000084" /><polygon fill="#c2caff" points="458.7350889359327,23.79473319220206 518.7350889359327,43.79473319220206 521.2649110640673,36.20526680779794 461.2649110640673,16.205266807797944" /><polygon fill="gray" points="-40.0,-8.0 -200.0,-8.0 -200.0,8.0 -40.0,8.0" /><polygon fill="lightgray" points="752.0,40.0 832.0,40.0 832.0,-40.0 752.0,-40.0" /><polygon fill="lightgray" points="852.0,16.0 912.0,16.0 910.0154442465727,15.876446027418684 990.0154442465727,25.876446027418684 993.9845557534273,-5.876446027418685 913.9845557534273,-15.876446027418684 912.0,-16.0 852.0,-16.0" /><polygon fill="lightgray" points="999.844179834121,23.94520859399279 1155.9220899170605,-73.0273957030036 1154.5298221281346,-72.41053361559588 1273.2649110640673,-116.20526680779795 1270.7350889359327,-123.79473319220205 1149.4701778718654,-87.58946638440412 1148.0779100829395,-86.9726042969964 984.155820165879,-3.9452085939927883" /><polygon fill="lightgray" points="988.6366360300185,19.417419115948373 1128.6366360300185,69.41741911594838 1135.3633639699815,50.58258088405162 995.3633639699815,0.5825808840516256" /><polygon fill="lightgray" points="1125.7530495244557,67.80868809443031 1229.5012198097822,143.12347523777214 1234.4987801902178,136.87652476222786 1138.2469504755443,52.19131190556969" /><polygon fill="lightgray" points="1136.4721359549997,68.94427190999916 1213.788854382,23.577708763999663 1210.7350889359327,23.79473319220206 1270.7350889359327,43.79473319220206 1273.2649110640673,36.20526680779794 1213.2649110640673,16.205266807797944 1210.211145618,16.422291236000337 1127.5278640450003,51.05572809000084" /><polygon fill="lightgray" points="712.0,-8.0 552.0,-8.0 552.0,8.0 712.0,8.0" /></g><g fill="red" id="points" stroke="red" stroke-width="2.0"><circle cx="40.0" cy="-0.0" fill="white" r="11.0" stroke="black" /><circle cx="130.0" cy="-0.0" fill="white" r="11.0" stroke="black" /><circle cx="200.0" cy="5.0" fill="white" r="11.0" stroke="black" /><circle cx="320.0" cy="-35.0" fill="white" r="11.0" stroke="black" /><circle cx="460.0" cy="-100.0" fill="white" r="11.0" stroke="black" /><circle cx="310.0" cy="35.0" fill="white" r="11.0" stroke="black" /><circle cx="430.0" cy="100.0" fill="white" r="11.0" stroke="black" /><circle cx="420.0" cy="40.0" fill="white" r="11.0" stroke="black" /><circle cx="490.0" cy="30.0" fill="white" r="11.0" stroke="black" /><circle cx="-120.0" cy="-0.0" fill="white" r="11.0" stroke="black" /><circle cx="882.3112887414927" cy="-0.0" fill="mediumslateblue" r="11.0" stroke="mediumslateblue" /><circle cx="1127.1232770039644" cy="-66.00684331472995" fill="mediumslateblue" r="11.0" stroke="mediumslateblue" /><circle cx="1062.0" cy="35.0" fill="mediumslateblue" r="11.0" stroke="mediumslateblue" /><circle cx="1182.0" cy="100.0" fill="mediumslateblue" r="11.0" stroke="mediumslateblue" /><circle cx="1200.284271247462" cy="25.857864376269045" fill="mediumslateblue" r="11.0" stroke="mediumslateblue" /><circle cx="632.0" cy="-0.0" fill="mediumslateblue" r="11.0" stroke="mediumslateblue" /></g><g alignment-baseline="middle" id="numbers" text-anchor="middle"><text fill="black" stroke="black" x="40.0" y="6.666666666666667">0</text><text fill="black" stroke="black" x="130.0" y="6.666666666666667">1</text><text fill="black" stroke="black" x="200.0" y="11.666666666666668">2</text><text fill="black" stroke="black" x="320.0" y="-28.333333333333332">3</text><text fill="black" stroke="black" x="460.0" y="-93.33333333333333">4</text><text fill="black" stroke="black" x="310.0" y="41.666666666666664">5</text><text fill="black" stroke="black" x="430.0" y="106.66666666666667">6</text><text fill="black" stroke="black" x="420.0" y="46.666666666666664">7</text><text fill="black" stroke="black" x="490.0" y="36.666666666666664">8</text><text fill="black" stroke="black" x="-120.0" y="6.666666666666667">9</text><text fill="white" stroke="white" x="882.3112887414927" y="6.666666666666667">0</text><text fill="white" stroke="white" x="1127.1232770039644" y="-59.340176648063284">1</text><text fill="white" stroke="white" x="1062.0" y="41.666666666666664">2</text><text fill="white" stroke="white" x="1182.0" y="106.66666666666667">3</text><text fill="white" stroke="white" x="1200.284271247462" y="32.52453104293571">4</text><text fill="white" stroke="white" x="632.0" y="6.666666666666667">5</text></g></svg>