<?xml version="1.0" encoding="utf-8" ?>
<svg baseProfile="full" height="100%" version="1.1" viewBox="-238.0,-154.0,792.0,328.0" width="100%" xmlns="http://www.w3.org/2000/svg" xmlns:ev="http://www.w3.org/2001/xml-events" xmlns:xlink="http://www.w3.org/1999/xlink"><defs /><g fill="white" id="lines" stroke="black" stroke-width="2.0"><polygon fill="#ffc2c2" points="0.0,40.0 80.0,40.0 80.0,-40.0 0.0,-40.0" /><polygon fill="#c2caff" points="100.0,16.0 160.0,16.0 160.0,-16.0 100.0,-16.0" /><polygon fill="#c2caff" points="158.01544424657266,15.876446027418684 238.01544424657266,25.876446027418684 241.98455575342734,-5.876446027418685 161.98455575342734,-15.876446027418684" /><polygon fill="#c2caff" points="247.84417983412095,23.94520859399279 403.9220899170605,-73.0273957030036 396.0779100829395,-86.9726042969964 232.15582016587905,-3.9452085939927883" /><polygon fill="#c2caff" points="402.5298221281347,-72.41053361559588 521.2649110640673,-116.20526680779795 518.7350889359327,-123.79473319220205 397.4701778718653,-87.58946638440412" /><polygon fill="#c2caff" points="236.63663603001845,19.417419115948373 376.63663603001845,69.41741911594838 383.36336396998155,50.58258088405162 243.36336396998155,0.5825808840516256" /><polygon fill="#c2caff" points="373.7530495244557,67.80868809443031 477.5012198097823,143.12347523777214 482.4987801902177,136.87652476222786 386.2469504755443,52.19131190556969" /><polygon fill="#c2caff" points="384.4721359549996,68.94427190999916 461.78885438199984,23.577708763999663 458.21114561800016,16.422291236000337 375.5278640450004,51.05572809000084" /><polygon fill="#c2caff" points="458.7350889359327,23.79473319220206 518.7350889359327,43.79473319220206 521.2649110640673,36.20526680779794 461.2649110640673,16.205266807797944" /><polygon fill="gray" points="-40.0,-8.0 -200.0,-8.0 -200.0,8.0 -40.0,8.0" /></g><g fill="red" id="points" stroke="red" stroke-width="2.0"><circle cx="40.0" cy="-0.0" fill="white" r="11.0" stroke="black" /><circle cx="130.0" cy="-0.0" fill="white" r="11.0" stroke="black" /><circle cx="200.0" cy="5.0" fill="white" r="11.0" stroke="black" /><circle cx="320.0" cy="-35.0" fill="white" r="11.0" stroke="black" /><circle cx="460.0" cy="-100.0" fill="white" r="11.0" stroke="black" /><circle cx="310.0" cy="35.0" fill="white" r="11.0" stroke="black" /><circle cx="430.0" cy="100.0" fill="white" r="11.0" stroke="black" /><circle cx="420.0" cy="40.0" fill="white" r="11.0" stroke="black" /><circle cx="490.0" cy="30.0" fill="white" r="11.0" stroke="black" /><circle cx="-120.0" cy="-0.0" fill="white" r="11.0" stroke="black" /></g><g alignment-baseline="middle" id="numbers" text-anchor="middle"><text fill="black" stroke="black" x="40.0" y="6.666666666666667">0</text><text fill="black" stroke="black" x="130.0" y="6.666666666666667">1</text><text fill="black" stroke="black" x="200.0" y="11.666666666666668">2</text><text fill="black" stroke="black" x="320.0" y="-28.333333333333332">3</text><text fill="black" stroke="black" x="460.0" y="-93.33333333333333">4</text><text fill="black" stroke="black" x="310.0" y="41.666666666666664">5</text><text fill="black" stroke="black" x="430.0" y="106.66666666666667">6</text><text fill="black" stroke="black" x="420.0" y="46.666666666666664">7</text><text fill="black" stroke="black" x="490.0" y="36.666666666666664">8</text><text fill="black" stroke="black" x="-120.0" y="6.666666666666667">9</text></g></svg>