<?xml version="1.0" encoding="utf-8" ?>
<svg baseProfile="full" height="100%" version="1.1" viewBox="-238.0,-154.0,1544.0,328.0" width="100%" xmlns="http://www.w3.org/2000/svg" xmlns:ev="http://www.w3.org/2001/xml-events" xmlns:xlink="http://www.w3.org/1999/xlink"><defs /><g fill="white" id="lines" stroke="black" stroke-width="4.0"><polygon fill="lightgray" points="0.0,40.0 80.0,40.0 80.0,16.0 160.0,16.0 158.01544424657266,15.876446027418684 238.01544424657266,25.876446027418684 241.98455575342734,-5.876446027418685 161.98455575342734,-15.876446027418684 160.0,-16.0 80.0,-16.0 80.0,-40.0 0.0,-40.0" stroke="lightgray" /><polygon fill="lightgray" points="247.84417983412095,23.94520859399279 403.9220899170605,-73.0273957030036 402.5298221281347,-72.41053361559588 521.2649110640673,-116.20526680779795 518.7350889359327,-123.79473319220205 397.4701778718653,-87.58946638440412 396.0779100829395,-86.9726042969964 232.15582016587905,-3.9452085939927883" stroke="lightgray" /><polygon fill="lightgray" points="236.63663603001845,19.417419115948373 376.63663603001845,69.41741911594838 383.36336396998155,50.58258088405162 243.36336396998155,0.5825808840516256" stroke="lightgray" /><polygon fill="lightgray" points="373.7530495244557,67.80868809443031 477.5012198097823,143.12347523777214 482.4987801902177,136.87652476222786 386.2469504755443,52.19131190556969" stroke="lightgray" /><polygon fill="lightgray" points="384.4721359549996,68.94427190999916 461.78885438199984,23.577708763999663 458.7350889359327,23.79473319220206 518.7350889359327,43.79473319220206 521.2649110640673,36.20526680779794 461.2649110640673,16.205266807797944 458.21114561800016,16.422291236000337 375.5278640450004,51.05572809000084" stroke="lightgray" /><polygon fill="lightgray" points="0.0,-40.0 -140.0,-7.999999999999998 -140.0,-8.0 -200.0,-8.0 -200.0,8.0 -140.0,8.0 -140.0,7.999999999999998 0.0,40.0" stroke="lightgray" /><polygon fill="lightgray" points="752.0,40.0 832.0,40.0 832.0,16.0 912.0,16.0 910.0154442465727,15.876446027418684 990.0154442465727,25.876446027418684 993.9845557534273,-5.876446027418685 913.9845557534273,-15.876446027418684 912.0,-16.0 832.0,-16.0 832.0,-40.0 752.0,-40.0" stroke="lightgray" /><polygon fill="lightgray" points="999.844179834121,23.94520859399279 1155.9220899170605,-73.0273957030036 1154.5298221281346,-72.41053361559588 1273.2649110640673,-116.20526680779795 1270.7350889359327,-123.79473319220205 1149.4701778718654,-87.58946638440412 1148.0779100829395,-86.9726042969964 984.155820165879,-3.9452085939927883" stroke="lightgray" /><polygon fill="lightgray" points="988.6366360300185,19.417419115948373 1128.6366360300185,69.41741911594838 1135.3633639699815,50.58258088405162 995.3633639699815,0.5825808840516256" stroke="lightgray" /><polygon fill="lightgray" points="1125.7530495244557,67.80868809443031 1229.5012198097822,143.12347523777214 1234.4987801902178,136.87652476222786 1138.2469504755443,52.19131190556969" stroke="lightgray" /><polygon fill="lightgray" points="1136.4721359549997,68.94427190999916 1213.788854382,23.577708763999663 1210.7350889359327,23.79473319220206 1270.7350889359327,43.79473319220206 1273.2649110640673,36.20526680779794 1213.2649110640673,16.205266807797944 1210.211145618,16.422291236000337 1127.5278640450003,51.05572809000084" stroke="lightgray" /><polygon fill="lightgray" points="752.0,-40.0 612.0,-7.999999999999998 612.0,-8.0 552.0,-8.0 552.0,8.0 612.0,8.0 612.0,7.999999999999998 752.0,40.0" stroke="lightgray" /></g><g fill="red" id="points" stroke="red" stroke-width="4.0"><circle cx="0.0" cy="-0.0" fill="white" r="8.0" stroke="red" /><circle cx="520.0" cy="-120.0" fill="white" r="6.666666666666667" stroke="black" /><circle cx="480.0" cy="140.0" fill="white" r="6.666666666666667" stroke="black" /><circle cx="520.0" cy="40.0" fill="white" r="6.666666666666667" stroke="black" /><circle cx="-200.0" cy="-0.0" fill="white" r="6.666666666666667" stroke="black" /><circle cx="752.0" cy="-0.0" fill="white" r="8.0" stroke="red" /><circle cx="885.4779966523607" cy="-0.0" fill="white" r="6.666666666666667" stroke="black" /><circle cx="892.5658915794857" cy="-0.0" fill="white" r="6.666666666666667" stroke="black" /><circle cx="898.1041049201765" cy="-0.0" fill="white" r="6.666666666666667" stroke="black" /><circle cx="900.731004890187" cy="-0.0" fill="white" r="6.666666666666667" stroke="black" /><circle cx="900.9657231616419" cy="-0.0" fill="white" r="6.666666666666667" stroke="black" /><circle cx="921.0231010687783" cy="1.1278876335972872" fill="white" r="6.666666666666667" stroke="black" /><circle cx="935.0816349342242" cy="2.8852043667780283" fill="white" r="6.666666666666667" stroke="black" /><circle cx="983.5274550145293" cy="8.94093187681617" fill="white" r="6.666666666666667" stroke="black" /><circle cx="1033.5701019123107" cy="-13.383182325674818" fill="white" r="6.666666666666667" stroke="black" /><circle cx="1062.121409106491" cy="-29.44329262240118" fill="white" r="6.666666666666667" stroke="black" /><circle cx="1067.905912537547" cy="-32.69707580237019" fill="white" r="6.666666666666667" stroke="black" /><circle cx="1092.7933567141301" cy="-46.69626315169821" fill="white" r="6.666666666666667" stroke="black" /><circle cx="1099.0057481665804" cy="-50.190733343701424" fill="white" r="6.666666666666667" stroke="black" /><circle cx="1117.1086031742752" cy="-60.3735892855299" fill="white" r="6.666666666666667" stroke="black" /><circle cx="1119.953277518254" cy="-61.973718604017876" fill="white" r="6.666666666666667" stroke="black" /><circle cx="1140.4595899788892" cy="-73.50851936312516" fill="white" r="6.666666666666667" stroke="black" /><circle cx="1161.0354400589392" cy="-83.01181335297971" fill="white" r="6.666666666666667" stroke="black" /><circle cx="1164.992155955674" cy="-84.33071865189133" fill="white" r="6.666666666666667" stroke="black" /><circle cx="1173.355415994055" cy="-87.11847199801836" fill="white" r="6.666666666666667" stroke="black" /><circle cx="1188.3810858149238" cy="-92.1270286049746" fill="white" r="6.666666666666667" stroke="black" /><circle cx="1197.4081065161783" cy="-95.13603550539278" fill="white" r="6.666666666666667" stroke="black" /><circle cx="1204.5634947489664" cy="-97.52116491632214" fill="white" r="6.666666666666667" stroke="black" /><circle cx="1209.0578127980757" cy="-99.01927093269191" fill="white" r="6.666666666666667" stroke="black" /><circle cx="1242.2588088393807" cy="-110.08626961312692" fill="white" r="6.666666666666667" stroke="black" /><circle cx="1259.6825295832616" cy="-115.89417652775388" fill="white" r="6.666666666666667" stroke="black" /><circle cx="1009.8835795963822" cy="16.386992712993646" fill="white" r="6.666666666666667" stroke="black" /><circle cx="1039.1229706650738" cy="26.82963238038347" fill="white" r="6.666666666666667" stroke="black" /><circle cx="1054.2360211266775" cy="32.22715040238485" fill="white" r="6.666666666666667" stroke="black" /><circle cx="1067.7325337400684" cy="37.04733347859589" fill="white" r="6.666666666666667" stroke="black" /><circle cx="1072.7451600931347" cy="38.83755717611953" fill="white" r="6.666666666666667" stroke="black" /><circle cx="1080.7628967390444" cy="41.70103454965872" fill="white" r="6.666666666666667" stroke="black" /><circle cx="1080.9668161672532" cy="41.77386291687611" fill="white" r="6.666666666666667" stroke="black" /><circle cx="1087.311187943205" cy="44.039709979716065" fill="white" r="6.666666666666667" stroke="black" /><circle cx="1100.4518326505051" cy="48.7327973751804" fill="white" r="6.666666666666667" stroke="black" /><circle cx="1137.0207085968775" cy="64.01656687750206" fill="white" r="6.666666666666667" stroke="black" /><circle cx="1157.5814318772123" cy="80.46514550176981" fill="white" r="6.666666666666667" stroke="black" /><circle cx="1161.5830546071556" cy="83.66644368572445" fill="white" r="6.666666666666667" stroke="black" /><circle cx="1161.6698184761692" cy="83.73585478093537" fill="white" r="6.666666666666667" stroke="black" /><circle cx="1182.9669134988683" cy="100.77353079909464" fill="white" r="6.666666666666667" stroke="black" /><circle cx="1208.6230563742602" cy="121.29844509940807" fill="white" r="6.666666666666667" stroke="black" /><circle cx="1217.6583988992352" cy="128.52671911938813" fill="white" r="6.666666666666667" stroke="black" /><circle cx="1220.8907722151775" cy="131.11261777214196" fill="white" r="6.666666666666667" stroke="black" /><circle cx="1165.2015698987843" cy="43.39921505060787" fill="white" r="6.666666666666667" stroke="black" /><circle cx="1191.4668763337902" cy="30.2665618331049" fill="white" r="6.666666666666667" stroke="black" /><circle cx="1193.0154444593782" cy="29.49227777031095" fill="white" r="6.666666666666667" stroke="black" /><circle cx="1204.4928924677547" cy="23.753553766122625" fill="white" r="6.666666666666667" stroke="black" /><circle cx="1209.8640856836687" cy="21.067957158165637" fill="white" r="6.666666666666667" stroke="black" /><circle cx="1224.210411716619" cy="24.07013723887301" fill="white" r="6.666666666666667" stroke="black" /><circle cx="1228.47878181193" cy="25.492927270643335" fill="white" r="6.666666666666667" stroke="black" /><circle cx="1245.7339787571343" cy="31.24465958571146" fill="white" r="6.666666666666667" stroke="black" /><circle cx="1259.5603966962049" cy="35.85346556540159" fill="white" r="6.666666666666667" stroke="black" /></g></svg>