<?xml version="1.0" encoding="utf-8" ?>
<svg baseProfile="full" height="100%" version="1.1" viewBox="-238.0,-154.0,792.0,328.0" width="100%" xmlns="http://www.w3.org/2000/svg" xmlns:ev="http://www.w3.org/2001/xml-events" xmlns:xlink="http://www.w3.org/1999/xlink"><defs /><g fill="white" id="lines" stroke="black" stroke-width="4.0"><polygon fill="lightgray" points="0.0,40.0 80.0,40.0 80.0,16.0 160.0,16.0 158.01544424657266,15.876446027418684 238.01544424657266,25.876446027418684 241.98455575342734,-5.876446027418685 161.98455575342734,-15.876446027418684 160.0,-16.0 80.0,-16.0 80.0,-40.0 0.0,-40.0" stroke="lightgray" /><polygon fill="lightgray" points="247.84417983412095,23.94520859399279 403.9220899170605,-73.0273957030036 402.5298221281347,-72.41053361559588 521.2649110640673,-116.20526680779795 518.7350889359327,-123.79473319220205 397.4701778718653,-87.58946638440412 396.0779100829395,-86.9726042969964 232.15582016587905,-3.9452085939927883" stroke="lightgray" /><polygon fill="lightgray" points="236.63663603001845,19.417419115948373 376.63663603001845,69.41741911594838 383.36336396998155,50.58258088405162 243.36336396998155,0.5825808840516256" stroke="lightgray" /><polygon fill="lightgray" points="373.7530495244557,67.80868809443031 477.5012198097823,143.12347523777214 482.4987801902177,136.87652476222786 386.2469504755443,52.19131190556969" stroke="lightgray" /><polygon fill="lightgray" points="384.4721359549996,68.94427190999916 461.78885438199984,23.577708763999663 458.7350889359327,23.79473319220206 518.7350889359327,43.79473319220206 521.2649110640673,36.20526680779794 461.2649110640673,16.205266807797944 458.21114561800016,16.422291236000337 375.5278640450004,51.05572809000084" stroke="lightgray" /><polygon fill="lightgray" points="0.0,-40.0 -140.0,-7.999999999999998 -140.0,-8.0 -200.0,-8.0 -200.0,8.0 -140.0,8.0 -140.0,7.999999999999998 0.0,40.0" stroke="lightgray" /></g><g fill="red" id="points" stroke="red" stroke-width="4.0"><circle cx="0.0" cy="-0.0" fill="white" r="8.0" stroke="red" /><circle cx="0.0" cy="-0.0" fill="white" r="6.666666666666667" stroke="black" /></g></svg>