<?xml version="1.0" encoding="utf-8" ?>
<svg baseProfile="full" height="100%" version="1.1" viewBox="-238.0,-154.0,3848.0,328.0" width="100%" xmlns="http://www.w3.org/2000/svg" xmlns:ev="http://www.w3.org/2001/xml-events" xmlns:xlink="http://www.w3.org/1999/xlink"><defs /><g fill="white" id="lines" stroke="black" stroke-width="4.0"><polygon fill="lightgray" points="0.0,40.0 80.0,40.0 80.0,16.0 160.0,16.0 158.01544424657266,15.876446027418684 238.01544424657266,25.876446027418684 241.98455575342734,-5.876446027418685 161.98455575342734,-15.876446027418684 160.0,-16.0 80.0,-16.0 80.0,-40.0 0.0,-40.0" stroke="lightgray" /><polygon fill="lightgray" points="247.84417983412095,23.94520859399279 403.9220899170605,-73.0273957030036 402.5298221281347,-72.41053361559588 521.2649110640673,-116.20526680779795 518.7350889359327,-123.79473319220205 397.4701778718653,-87.58946638440412 396.0779100829395,-86.9726042969964 232.15582016587905,-3.9452085939927883" stroke="lightgray" /><polygon fill="lightgray" points="236.63663603001845,19.417419115948373 376.63663603001845,69.41741911594838 383.36336396998155,50.58258088405162 243.36336396998155,0.5825808840516256" stroke="lightgray" /><polygon fill="lightgray" points="373.7530495244557,67.80868809443031 477.5012198097823,143.12347523777214 482.4987801902177,136.87652476222786 386.2469504755443,52.19131190556969" stroke="lightgray" /><polygon fill="lightgray" points="384.4721359549996,68.94427190999916 461.78885438199984,23.577708763999663 459.6932140044611,23.988217942006326 719.6932140044611,43.98821794200632 720.3067859955389,36.01178205799367 460.3067859955389,16.011782057993674 458.21114561800016,16.422291236000337 375.5278640450004,51.05572809000084" stroke="lightgray" /><polygon fill="lightgray" points="0.0,-40.0 -140.0,-7.999999999999998 -140.0,-8.0 -200.0,-8.0 -200.0,8.0 -140.0,8.0 -140.0,7.999999999999998 0.0,40.0" stroke="lightgray" /><polygon fill="black" points="0.0,40.0 80.0,40.0 80.0,-40.0 0.0,-40.0" stroke="lightgray" /><polygon fill="lightgray" points="952.0,40.0 1032.0,40.0 1032.0,16.0 1112.0,16.0 1110.0154442465728,15.876446027418684 1190.0154442465728,25.876446027418684 1193.9845557534272,-5.876446027418685 1113.9845557534272,-15.876446027418684 1112.0,-16.0 1032.0,-16.0 1032.0,-40.0 952.0,-40.0" stroke="lightgray" /><polygon fill="lightgray" points="1199.844179834121,23.94520859399279 1355.9220899170605,-73.0273957030036 1354.5298221281346,-72.41053361559588 1473.2649110640673,-116.20526680779795 1470.7350889359327,-123.79473319220205 1349.4701778718654,-87.58946638440412 1348.0779100829395,-86.9726042969964 1184.155820165879,-3.9452085939927883" stroke="lightgray" /><polygon fill="lightgray" points="1188.6366360300185,19.417419115948373 1328.6366360300185,69.41741911594838 1335.3633639699815,50.58258088405162 1195.3633639699815,0.5825808840516256" stroke="lightgray" /><polygon fill="lightgray" points="1325.7530495244557,67.80868809443031 1429.5012198097822,143.12347523777214 1434.4987801902178,136.87652476222786 1338.2469504755443,52.19131190556969" stroke="lightgray" /><polygon fill="lightgray" points="1336.4721359549997,68.94427190999916 1413.788854382,23.577708763999663 1411.693214004461,23.988217942006326 1671.693214004461,43.98821794200632 1672.306785995539,36.01178205799367 1412.306785995539,16.011782057993674 1410.211145618,16.422291236000337 1327.5278640450003,51.05572809000084" stroke="lightgray" /><polygon fill="lightgray" points="952.0,-40.0 812.0,-7.999999999999998 812.0,-8.0 752.0,-8.0 752.0,8.0 812.0,8.0 812.0,7.999999999999998 952.0,40.0" stroke="lightgray" /><polygon fill="black" points="952.0,-40.0 812.0,-7.999999999999998 812.0,-8.0 752.0,-8.0 752.0,8.0 812.0,8.0 812.0,7.999999999999998 952.0,40.0" stroke="lightgray" /><polygon fill="lightgray" points="1904.0,40.0 1984.0,40.0 1984.0,16.0 2064.0,16.0 2062.0154442465728,15.876446027418684 2142.0154442465728,25.876446027418684 2145.9845557534272,-5.876446027418685 2065.9845557534272,-15.876446027418684 2064.0,-16.0 1984.0,-16.0 1984.0,-40.0 1904.0,-40.0" stroke="lightgray" /><polygon fill="lightgray" points="2151.844179834121,23.94520859399279 2307.9220899170605,-73.0273957030036 2306.5298221281346,-72.41053361559588 2425.2649110640673,-116.20526680779795 2422.7350889359327,-123.79473319220205 2301.4701778718654,-87.58946638440412 2300.0779100829395,-86.9726042969964 2136.155820165879,-3.9452085939927883" stroke="lightgray" /><polygon fill="lightgray" points="2140.6366360300185,19.417419115948373 2280.6366360300185,69.41741911594838 2287.3633639699815,50.58258088405162 2147.3633639699815,0.5825808840516256" stroke="lightgray" /><polygon fill="lightgray" points="2277.7530495244555,67.80868809443031 2381.5012198097825,143.12347523777214 2386.4987801902175,136.87652476222786 2290.2469504755445,52.19131190556969" stroke="lightgray" /><polygon fill="lightgray" points="2288.4721359549994,68.94427190999916 2365.788854382,23.577708763999663 2363.693214004461,23.988217942006326 2623.693214004461,43.98821794200632 2624.306785995539,36.01178205799367 2364.306785995539,16.011782057993674 2362.211145618,16.422291236000337 2279.5278640450006,51.05572809000084" stroke="lightgray" /><polygon fill="lightgray" points="1904.0,-40.0 1764.0,-7.999999999999998 1764.0,-8.0 1704.0,-8.0 1704.0,8.0 1764.0,8.0 1764.0,7.999999999999998 1904.0,40.0" stroke="lightgray" /><polygon fill="black" points="1984.0,40.0 1984.0,40.0 1984.0,16.0 2064.0,16.0 2062.0154442465728,15.876446027418684 2142.0154442465728,25.876446027418684 2145.9845557534272,-5.876446027418685 2065.9845557534272,-15.876446027418684 2064.0,-16.0 1984.0,-16.0 1984.0,-40.0 1984.0,-40.0" stroke="lightgray" /><polygon fill="black" points="2151.844179834121,23.94520859399279 2307.9220899170605,-73.0273957030036 2306.5298221281346,-72.41053361559588 2425.2649110640673,-116.20526680779795 2422.7350889359327,-123.79473319220205 2301.4701778718654,-87.58946638440412 2300.0779100829395,-86.9726042969964 2136.155820165879,-3.9452085939927883" stroke="lightgray" /><polygon fill="black" points="2140.6366360300185,19.417419115948373 2280.6366360300185,69.41741911594838 2287.3633639699815,50.58258088405162 2147.3633639699815,0.5825808840516256" stroke="lightgray" /><polygon fill="lightgray" points="2856.0,40.0 2936.0,40.0 2936.0,16.0 3016.0,16.0 3014.0154442465728,15.876446027418684 3094.0154442465728,25.876446027418684 3097.9845557534272,-5.876446027418685 3017.9845557534272,-15.876446027418684 3016.0,-16.0 2936.0,-16.0 2936.0,-40.0 2856.0,-40.0" stroke="lightgray" /><polygon fill="lightgray" points="3103.844179834121,23.94520859399279 3259.9220899170605,-73.0273957030036 3258.5298221281346,-72.41053361559588 3377.2649110640673,-116.20526680779795 3374.7350889359327,-123.79473319220205 3253.4701778718654,-87.58946638440412 3252.0779100829395,-86.9726042969964 3088.155820165879,-3.9452085939927883" stroke="lightgray" /><polygon fill="lightgray" points="3092.6366360300185,19.417419115948373 3232.6366360300185,69.41741911594838 3239.3633639699815,50.58258088405162 3099.3633639699815,0.5825808840516256" stroke="lightgray" /><polygon fill="lightgray" points="3229.7530495244555,67.80868809443031 3333.5012198097825,143.12347523777214 3338.4987801902175,136.87652476222786 3242.2469504755445,52.19131190556969" stroke="lightgray" /><polygon fill="lightgray" points="3240.4721359549994,68.94427190999916 3317.788854382,23.577708763999663 3315.693214004461,23.988217942006326 3575.693214004461,43.98821794200632 3576.306785995539,36.01178205799367 3316.306785995539,16.011782057993674 3314.211145618,16.422291236000337 3231.5278640450006,51.05572809000084" stroke="lightgray" /><polygon fill="lightgray" points="2856.0,-40.0 2716.0,-7.999999999999998 2716.0,-8.0 2656.0,-8.0 2656.0,8.0 2716.0,8.0 2716.0,7.999999999999998 2856.0,40.0" stroke="lightgray" /><polygon fill="black" points="3229.7530495244555,67.80868809443031 3333.5012198097825,143.12347523777214 3338.4987801902175,136.87652476222786 3242.2469504755445,52.19131190556969" stroke="lightgray" /><polygon fill="black" points="3240.4721359549994,68.94427190999916 3317.788854382,23.577708763999663 3315.693214004461,23.988217942006326 3575.693214004461,43.98821794200632 3576.306785995539,36.01178205799367 3316.306785995539,16.011782057993674 3314.211145618,16.422291236000337 3231.5278640450006,51.05572809000084" stroke="lightgray" /></g><g fill="red" id="points" stroke="red" stroke-width="4.0"><circle cx="0.0" cy="-0.0" fill="white" r="8.0" stroke="red" /><circle cx="952.0" cy="-0.0" fill="white" r="8.0" stroke="red" /><circle cx="1904.0" cy="-0.0" fill="white" r="8.0" stroke="red" /><circle cx="2856.0" cy="-0.0" fill="white" r="8.0" stroke="red" /></g></svg>