<?xml version="1.0" encoding="utf-8" ?>
<svg baseProfile="full" height="100%" version="1.1" viewBox="-238.0,-154.0,1544.0,328.0" width="100%" xmlns="http://www.w3.org/2000/svg" xmlns:ev="http://www.w3.org/2001/xml-events" xmlns:xlink="http://www.w3.org/1999/xlink"><defs /><g fill="white" id="lines" stroke="black" stroke-width="4.0"><polygon fill="lightgray" points="0.0,40.0 80.0,40.0 80.0,16.0 160.0,16.0 158.01544424657266,15.876446027418684 238.01544424657266,25.876446027418684 241.98455575342734,-5.876446027418685 161.98455575342734,-15.876446027418684 160.0,-16.0 80.0,-16.0 80.0,-40.0 0.0,-40.0" stroke="lightgray" /><polygon fill="lightgray" points="247.84417983412095,23.94520859399279 403.9220899170605,-73.0273957030036 402.5298221281347,-72.41053361559588 521.2649110640673,-116.20526680779795 518.7350889359327,-123.79473319220205 397.4701778718653,-87.58946638440412 396.0779100829395,-86.9726042969964 232.15582016587905,-3.9452085939927883" stroke="lightgray" /><polygon fill="lightgray" points="236.63663603001845,19.417419115948373 376.63663603001845,69.41741911594838 383.36336396998155,50.58258088405162 243.36336396998155,0.5825808840516256" stroke="lightgray" /><polygon fill="lightgray" points="373.7530495244557,67.80868809443031 477.5012198097823,143.12347523777214 482.4987801902177,136.87652476222786 386.2469504755443,52.19131190556969" stroke="lightgray" /><polygon fill="lightgray" points="384.4721359549996,68.94427190999916 461.78885438199984,23.577708763999663 458.7350889359327,23.79473319220206 518.7350889359327,43.79473319220206 521.2649110640673,36.20526680779794 461.2649110640673,16.205266807797944 458.21114561800016,16.422291236000337 375.5278640450004,51.05572809000084" stroke="lightgray" /><polygon fill="lightgray" points="0.0,-40.0 -140.0,-7.999999999999998 -140.0,-8.0 -200.0,-8.0 -200.0,8.0 -140.0,8.0 -140.0,7.999999999999998 0.0,40.0" stroke="lightgray" /><polygon fill="lightgray" points="752.0,40.0 832.0,40.0 832.0,16.0 912.0,16.0 910.0154442465727,15.876446027418684 990.0154442465727,25.876446027418684 993.9845557534273,-5.876446027418685 913.9845557534273,-15.876446027418684 912.0,-16.0 832.0,-16.0 832.0,-40.0 752.0,-40.0" stroke="lightgray" /><polygon fill="lightgray" points="999.844179834121,23.94520859399279 1155.9220899170605,-73.0273957030036 1154.5298221281346,-72.41053361559588 1273.2649110640673,-116.20526680779795 1270.7350889359327,-123.79473319220205 1149.4701778718654,-87.58946638440412 1148.0779100829395,-86.9726042969964 984.155820165879,-3.9452085939927883" stroke="lightgray" /><polygon fill="lightgray" points="988.6366360300185,19.417419115948373 1128.6366360300185,69.41741911594838 1135.3633639699815,50.58258088405162 995.3633639699815,0.5825808840516256" stroke="lightgray" /><polygon fill="lightgray" points="1125.7530495244557,67.80868809443031 1229.5012198097822,143.12347523777214 1234.4987801902178,136.87652476222786 1138.2469504755443,52.19131190556969" stroke="lightgray" /><polygon fill="lightgray" points="1136.4721359549997,68.94427190999916 1213.788854382,23.577708763999663 1210.7350889359327,23.79473319220206 1270.7350889359327,43.79473319220206 1273.2649110640673,36.20526680779794 1213.2649110640673,16.205266807797944 1210.211145618,16.422291236000337 1127.5278640450003,51.05572809000084" stroke="lightgray" /><polygon fill="lightgray" points="752.0,-40.0 612.0,-7.999999999999998 612.0,-8.0 552.0,-8.0 552.0,8.0 612.0,8.0 612.0,7.999999999999998 752.0,40.0" stroke="lightgray" /></g><g fill="red" id="points" stroke="red" stroke-width="4.0"><circle cx="0.0" cy="-0.0" fill="white" r="8.0" stroke="red" /><circle cx="140.56589157948568" cy="-0.0" fill="white" r="6.666666666666667" stroke="black" /><circle cx="412.992155955674" cy="-84.33071865189133" fill="white" r="6.666666666666667" stroke="black" /><circle cx="436.38108581492384" cy="-92.1270286049746" fill="white" r="6.666666666666667" stroke="black" /><circle cx="445.40810651617835" cy="-95.13603550539278" fill="white" r="6.666666666666667" stroke="black" /><circle cx="328.76289673904444" cy="41.70103454965872" fill="white" r="6.666666666666667" stroke="black" /><circle cx="335.31118794320497" cy="44.039709979716065" fill="white" r="6.666666666666667" stroke="black" /><circle cx="409.6698184761692" cy="83.73585478093537" fill="white" r="6.666666666666667" stroke="black" /><circle cx="430.96691349886834" cy="100.77353079909464" fill="white" r="6.666666666666667" stroke="black" /><circle cx="456.6230563742601" cy="121.29844509940807" fill="white" r="6.666666666666667" stroke="black" /><circle cx="457.86408568366875" cy="21.067957158165637" fill="white" r="6.666666666666667" stroke="black" /><circle cx="752.0" cy="-0.0" fill="white" r="8.0" stroke="red" /><circle cx="986.7008797932169" cy="9.337609974152116" fill="white" r="6.666666666666667" stroke="black" /><circle cx="1045.9775022271124" cy="-20.362345002750743" fill="white" r="6.666666666666667" stroke="black" /><circle cx="1222.3056697119905" cy="-103.4352232373301" fill="white" r="6.666666666666667" stroke="black" /><circle cx="1120.9432082304202" cy="56.051145796578666" fill="white" r="6.666666666666667" stroke="black" /><circle cx="1121.4200953617246" cy="56.221462629187364" fill="white" r="6.666666666666667" stroke="black" /><circle cx="1130.5968157118368" cy="59.4988627542274" fill="white" r="6.666666666666667" stroke="black" /><circle cx="1231.2423339597208" cy="139.3938671677767" fill="white" r="6.666666666666667" stroke="black" /><circle cx="1181.730428320074" cy="35.13478583996304" fill="white" r="6.666666666666667" stroke="black" /><circle cx="1197.3864540320994" cy="27.306772983950253" fill="white" r="6.666666666666667" stroke="black" /><circle cx="1202.1778797020875" cy="24.91106014895625" fill="white" r="6.666666666666667" stroke="black" /></g></svg>