<?xml version="1.0" encoding="utf-8" ?>
<svg baseProfile="full" height="100%" version="1.1" viewBox="-50.0,-94.0,728.0,188.0" width="100%" xmlns="http://www.w3.org/2000/svg" xmlns:ev="http://www.w3.org/2001/xml-events" xmlns:xlink="http://www.w3.org/1999/xlink"><defs /><g fill="white" id="lines" stroke="black" stroke-width="2.0"><polygon fill="#c2caff" points="0.0,20.0 200.0,10.0 200.0,-10.0 0.0,-20.0" /><polygon fill="#c2caff" points="205.14495755427527,8.57492925712544 302.05798302171013,-56.570028297149825 297.94201697828987,-63.429971702850175 194.85504244572473,-8.57492925712544" /><polygon fill="#c2caff" points="194.85504244572473,8.57492925712544 297.94201697828987,63.429971702850175 302.05798302171013,56.570028297149825 205.14495755427527,-8.57492925712544" /><polygon fill="lightgray" points="344.0,20.0 544.0,10.0 544.0,-10.0 344.0,-20.0" /><polygon fill="lightgray" points="549.1449575542753,8.57492925712544 646.0579830217101,-56.570028297149825 641.9420169782899,-63.429971702850175 538.8550424457247,-8.57492925712544" /><polygon fill="lightgray" points="538.8550424457247,8.57492925712544 641.9420169782899,63.429971702850175 646.0579830217101,56.570028297149825 549.1449575542753,-8.57492925712544" /></g><g fill="red" id="points" stroke="red" stroke-width="2.0"><circle cx="100.0" cy="-0.0" fill="white" r="11.0" stroke="black" /><circle cx="250.0" cy="-30.0" fill="white" r="11.0" stroke="black" /><circle cx="250.0" cy="30.0" fill="white" r="11.0" stroke="black" /><circle cx="444.0" cy="-0.0" fill="mediumslateblue" r="11.0" stroke="mediumslateblue" /><circle cx="594.0" cy="-30.0" fill="mediumslateblue" r="11.0" stroke="mediumslateblue" /><circle cx="594.0" cy="30.0" fill="mediumslateblue" r="11.0" stroke="mediumslateblue" /></g><g alignment-baseline="middle" id="numbers" text-anchor="middle"><text fill="black" stroke="black" x="100.0" y="6.666666666666667">0</text><text fill="black" stroke="black" x="250.0" y="-23.333333333333332">1</text><text fill="black" stroke="black" x="250.0" y="36.666666666666664">2</text><text fill="white" stroke="white" x="444.0" y="6.666666666666667">0</text><text fill="white" stroke="white" x="594.0" y="-23.333333333333332">1</text><text fill="white" stroke="white" x="594.0" y="36.666666666666664">2</text></g></svg>