<?xml version="1.0" encoding="utf-8" ?>
<svg baseProfile="full" height="100%" version="1.1" viewBox="-340.0,-212.0,1512.0,348.0" width="100%" xmlns="http://www.w3.org/2000/svg" xmlns:ev="http://www.w3.org/2001/xml-events" xmlns:xlink="http://www.w3.org/1999/xlink"><defs /><g fill="white" id="lines" stroke="black" stroke-width="2.0"><polygon fill="#ffc2c2" points="-60.0,60.0 60.0,60.0 60.0,-60.0 -60.0,-60.0" /><polygon fill="#c2caff" points="78.02721215233572,31.83672708598572 198.35601012694642,49.863939238321436 201.64398987305358,30.136060761678564 81.97278784766428,8.163272914014275" /><polygon fill="#c2caff" points="201.96116135138183,49.8058067569092 301.96116135138186,29.805806756909202 298.03883864861814,10.194193243090798 198.03883864861817,30.194193243090798" /><polygon fill="#c2caff" points="292.0,26.0 355.20000000000005,103.6 364.79999999999995,96.4 308.0,14.0" /><polygon fill="#c2caff" points="305.14495755427527,28.57492925712544 403.08697453256514,-34.855042445724735 396.91302546743486,-45.144957554275265 294.85504244572473,11.42507074287456" /><polygon fill="#c2caff" points="43.448174626796146,-8.506084577346185 242.87347885566345,-70.42173714778849 237.12652114433655,-89.57826285221151 36.551825373203854,-31.493915422653814" /><polygon fill="#c2caff" points="240.0,-70.0 360.0,-74.0 360.0,-86.0 240.0,-90.0" /><polygon fill="#c2caff" points="247.80868809443032,-73.75304952445576 321.561737618886,-178.75060990489115 318.43826238111393,-181.24939009510885 232.19131190556968,-86.24695047554424" /><polygon fill="gray" points="-72.3923566684867,-29.90445835608375 -120.7974522228289,-5.968152785361251 -119.2025477771711,13.96815278536125 -67.6076433315133,29.90445835608375" /><polygon fill="gray" points="-119.88889574696445,-5.999382773199424 -299.8888957469644,-7.999382773199423 -300.1111042530356,11.999382773199425 -120.11110425303555,13.999382773199425" /><polygon fill="lightgray" points="676.0,60.0 796.0,60.0 796.0,-60.0 676.0,-60.0" /><polygon fill="lightgray" points="814.0272121523358,31.83672708598572 934.3560101269464,49.863939238321436 937.9611613513819,49.8058067569092 1037.9611613513819,29.805806756909202 1034.0388386486181,10.194193243090798 934.0388386486181,30.194193243090798 937.6439898730536,30.136060761678564 817.9727878476642,8.163272914014275" /><polygon fill="lightgray" points="1028.0,26.0 1091.2,103.6 1100.8,96.4 1044.0,14.0" /><polygon fill="lightgray" points="1041.1449575542752,28.57492925712544 1139.0869745325651,-34.855042445724735 1132.9130254674349,-45.144957554275265 1030.8550424457248,11.42507074287456" /><polygon fill="lightgray" points="779.4481746267961,-8.506084577346185 978.8734788556635,-70.42173714778849 973.1265211443365,-89.57826285221151 772.5518253732039,-31.493915422653814" /><polygon fill="lightgray" points="976.0,-70.0 1096.0,-74.0 1096.0,-86.0 976.0,-90.0" /><polygon fill="lightgray" points="983.8086880944303,-73.75304952445576 1057.5617376188861,-178.75060990489115 1054.4382623811139,-181.24939009510885 968.1913119055697,-86.24695047554424" /><polygon fill="lightgray" points="663.6076433315133,-29.90445835608375 615.202547777171,-5.968152785361251 616.1111042530356,-5.999382773199424 436.1111042530356,-7.999382773199423 435.8888957469644,11.999382773199425 615.8888957469644,13.999382773199425 616.797452222829,13.96815278536125 668.3923566684867,29.90445835608375" /></g><g fill="red" id="points" stroke="red" stroke-width="2.0"><circle cx="0.0" cy="-0.0" fill="white" r="11.0" stroke="black" /><circle cx="140.0" cy="30.0" fill="white" r="11.0" stroke="black" /><circle cx="250.0" cy="30.0" fill="white" r="11.0" stroke="black" /><circle cx="330.0" cy="60.0" fill="white" r="11.0" stroke="black" /><circle cx="350.0" cy="-10.0" fill="white" r="11.0" stroke="black" /><circle cx="140.0" cy="-50.0" fill="white" r="11.0" stroke="black" /><circle cx="300.0" cy="-80.0" fill="white" r="11.0" stroke="black" /><circle cx="280.0" cy="-130.0" fill="white" r="11.0" stroke="black" /><circle cx="-95.0" cy="2.0" fill="white" r="11.0" stroke="black" /><circle cx="-210.0" cy="3.0000000000000004" fill="white" r="11.0" stroke="black" /><circle cx="736.0" cy="-0.0" fill="mediumslateblue" r="11.0" stroke="mediumslateblue" /><circle cx="926.2964186570946" cy="38.382736442849094" fill="mediumslateblue" r="11.0" stroke="mediumslateblue" /><circle cx="1066.0" cy="60.0" fill="mediumslateblue" r="11.0" stroke="mediumslateblue" /><circle cx="1086.0" cy="-10.0" fill="mediumslateblue" r="11.0" stroke="mediumslateblue" /><circle cx="876.0" cy="-50.0" fill="mediumslateblue" r="11.0" stroke="mediumslateblue" /><circle cx="1036.0" cy="-80.0" fill="mediumslateblue" r="11.0" stroke="mediumslateblue" /><circle cx="1016.0" cy="-130.0" fill="mediumslateblue" r="11.0" stroke="mediumslateblue" /><circle cx="551.0783244110283" cy="3.2786480490114265" fill="mediumslateblue" r="11.0" stroke="mediumslateblue" /></g><g alignment-baseline="middle" id="numbers" text-anchor="middle"><text fill="black" stroke="black" x="0.0" y="6.666666666666667">0</text><text fill="black" stroke="black" x="140.0" y="36.666666666666664">1</text><text fill="black" stroke="black" x="250.0" y="36.666666666666664">2</text><text fill="black" stroke="black" x="330.0" y="66.66666666666667">3</text><text fill="black" stroke="black" x="350.0" y="-3.333333333333333">4</text><text fill="black" stroke="black" x="140.0" y="-43.333333333333336">5</text><text fill="black" stroke="black" x="300.0" y="-73.33333333333333">6</text><text fill="black" stroke="black" x="280.0" y="-123.33333333333333">7</text><text fill="black" stroke="black" x="-95.0" y="8.666666666666668">8</text><text fill="black" stroke="black" x="-210.0" y="9.666666666666668">9</text><text fill="white" stroke="white" x="736.0" y="6.666666666666667">0</text><text fill="white" stroke="white" x="926.2964186570946" y="45.04940310951576">1</text><text fill="white" stroke="white" x="1066.0" y="66.66666666666667">2</text><text fill="white" stroke="white" x="1086.0" y="-3.333333333333333">3</text><text fill="white" stroke="white" x="876.0" y="-43.333333333333336">4</text><text fill="white" stroke="white" x="1036.0" y="-73.33333333333333">5</text><text fill="white" stroke="white" x="1016.0" y="-123.33333333333333">6</text><text fill="white" stroke="white" x="551.0783244110283" y="9.945314715678094">7</text></g></svg>