<?xml version="1.0" encoding="utf-8" ?>
<svg baseProfile="full" height="100%" version="1.1" viewBox="-330.0,-192.0,1452.0,308.0" width="100%" xmlns="http://www.w3.org/2000/svg" xmlns:ev="http://www.w3.org/2001/xml-events" xmlns:xlink="http://www.w3.org/1999/xlink"><defs /><g fill="white" id="lines" stroke="black" stroke-width="2.0"><polygon fill="#ffc2c2" points="-60.0,60.0 60.0,60.0 60.0,-60.0 -60.0,-60.0" /><polygon fill="#c2caff" points="58.027212152335714,11.836727085985725 178.35601012694642,29.863939238321436 181.64398987305358,10.136060761678563 61.972787847664286,-11.836727085985725" /><polygon fill="#c2caff" points="181.96116135138183,29.805806756909202 281.96116135138186,9.805806756909202 278.03883864861814,-9.805806756909202 178.03883864861817,10.194193243090798" /><polygon fill="#c2caff" points="272.0,6.0 335.20000000000005,83.6 344.79999999999995,76.39999999999999 288.0,-6.0" /><polygon fill="#c2caff" points="285.14495755427527,8.57492925712544 383.08697453256514,-54.855042445724735 376.91302546743486,-65.14495755427527 274.85504244572473,-8.57492925712544" /><polygon fill="#c2caff" points="63.448174626796146,11.493915422653815 262.87347885566345,-50.421737147788484 257.12652114433655,-69.57826285221151 56.551825373203854,-11.493915422653815" /><polygon fill="#c2caff" points="260.0,-50.0 380.0,-54.0 380.0,-66.0 260.0,-70.0" /><polygon fill="#c2caff" points="267.8086880944303,-53.753049524455754 341.561737618886,-158.75060990489115 338.438262381114,-161.24939009510885 252.19131190556968,-66.24695047554424" /><polygon fill="gray" points="-62.392356668486705,-29.90445835608375 -110.7974522228289,-5.968152785361251 -109.2025477771711,13.96815278536125 -57.607643331513295,29.90445835608375" /><polygon fill="gray" points="-109.88889574696445,-5.999382773199424 -289.8888957469644,-7.999382773199423 -290.1111042530356,11.999382773199425 -110.11110425303555,13.999382773199425" /><polygon fill="lightgray" points="646.0,60.0 766.0,60.0 766.0,-60.0 646.0,-60.0" /><polygon fill="lightgray" points="764.0272121523357,11.836727085985725 884.3560101269464,29.863939238321436 887.9611613513819,29.805806756909202 987.9611613513819,9.805806756909202 984.0388386486181,-9.805806756909202 884.0388386486181,10.194193243090798 887.6439898730536,10.136060761678563 767.9727878476643,-11.836727085985725" /><polygon fill="lightgray" points="978.0,6.0 1041.2,83.6 1050.8,76.39999999999999 994.0,-6.0" /><polygon fill="lightgray" points="991.1449575542753,8.57492925712544 1089.0869745325651,-54.855042445724735 1082.9130254674349,-65.14495755427527 980.8550424457247,-8.57492925712544" /><polygon fill="lightgray" points="769.4481746267961,11.493915422653815 968.8734788556635,-50.421737147788484 963.1265211443365,-69.57826285221151 762.5518253732039,-11.493915422653815" /><polygon fill="lightgray" points="966.0,-50.0 1086.0,-54.0 1086.0,-66.0 966.0,-70.0" /><polygon fill="lightgray" points="973.8086880944303,-53.753049524455754 1047.5617376188861,-158.75060990489115 1044.4382623811139,-161.24939009510885 958.1913119055697,-66.24695047554424" /><polygon fill="lightgray" points="643.6076433315133,-29.90445835608375 595.202547777171,-5.968152785361251 596.1111042530356,-5.999382773199424 416.1111042530356,-7.999382773199423 415.8888957469644,11.999382773199425 595.8888957469644,13.999382773199425 596.797452222829,13.96815278536125 648.3923566684867,29.90445835608375" /></g><g fill="red" id="points" stroke="red" stroke-width="2.0"><circle cx="0.0" cy="-0.0" fill="white" r="11.0" stroke="black" /><circle cx="120.0" cy="10.0" fill="white" r="11.0" stroke="black" /><circle cx="230.0" cy="10.0" fill="white" r="11.0" stroke="black" /><circle cx="310.0" cy="40.0" fill="white" r="11.0" stroke="black" /><circle cx="330.0" cy="-30.0" fill="white" r="11.0" stroke="black" /><circle cx="160.0" cy="-30.0" fill="white" r="11.0" stroke="black" /><circle cx="320.0" cy="-60.0" fill="white" r="11.0" stroke="black" /><circle cx="300.0" cy="-110.0" fill="white" r="11.0" stroke="black" /><circle cx="-85.0" cy="2.0" fill="white" r="11.0" stroke="black" /><circle cx="-200.0" cy="3.0000000000000004" fill="white" r="11.0" stroke="black" /><circle cx="706.0" cy="-0.0" fill="mediumslateblue" r="11.0" stroke="mediumslateblue" /><circle cx="876.2964186570946" cy="18.382736442849094" fill="mediumslateblue" r="11.0" stroke="mediumslateblue" /><circle cx="1016.0" cy="40.0" fill="mediumslateblue" r="11.0" stroke="mediumslateblue" /><circle cx="1036.0" cy="-30.0" fill="mediumslateblue" r="11.0" stroke="mediumslateblue" /><circle cx="866.0" cy="-30.0" fill="mediumslateblue" r="11.0" stroke="mediumslateblue" /><circle cx="1026.0" cy="-60.0" fill="mediumslateblue" r="11.0" stroke="mediumslateblue" /><circle cx="1006.0" cy="-110.0" fill="mediumslateblue" r="11.0" stroke="mediumslateblue" /><circle cx="531.0783244110283" cy="3.2786480490114265" fill="mediumslateblue" r="11.0" stroke="mediumslateblue" /></g><g alignment-baseline="middle" id="numbers" text-anchor="middle"><text fill="black" stroke="black" x="0.0" y="6.666666666666667">0</text><text fill="black" stroke="black" x="120.0" y="16.666666666666668">1</text><text fill="black" stroke="black" x="230.0" y="16.666666666666668">2</text><text fill="black" stroke="black" x="310.0" y="46.666666666666664">3</text><text fill="black" stroke="black" x="330.0" y="-23.333333333333332">4</text><text fill="black" stroke="black" x="160.0" y="-23.333333333333332">5</text><text fill="black" stroke="black" x="320.0" y="-53.333333333333336">6</text><text fill="black" stroke="black" x="300.0" y="-103.33333333333333">7</text><text fill="black" stroke="black" x="-85.0" y="8.666666666666668">8</text><text fill="black" stroke="black" x="-200.0" y="9.666666666666668">9</text><text fill="white" stroke="white" x="706.0" y="6.666666666666667">0</text><text fill="white" stroke="white" x="876.2964186570946" y="25.04940310951576">1</text><text fill="white" stroke="white" x="1016.0" y="46.666666666666664">2</text><text fill="white" stroke="white" x="1036.0" y="-23.333333333333332">3</text><text fill="white" stroke="white" x="866.0" y="-23.333333333333332">4</text><text fill="white" stroke="white" x="1026.0" y="-53.333333333333336">5</text><text fill="white" stroke="white" x="1006.0" y="-103.33333333333333">6</text><text fill="white" stroke="white" x="531.0783244110283" y="9.945314715678094">7</text></g></svg>