<?xml version="1.0" encoding="utf-8" ?>
<svg baseProfile="full" height="100%" version="1.1" viewBox="-150.0,-90.0,1132.0,226.0" width="100%" xmlns="http://www.w3.org/2000/svg" xmlns:ev="http://www.w3.org/2001/xml-events" xmlns:xlink="http://www.w3.org/1999/xlink"><defs /><g fill="white" id="lines" stroke="black" stroke-width="2.0"><polygon fill="#ffc2c2" points="-60.0,60.0 60.0,60.0 60.0,-60.0 -60.0,-60.0" /><polygon fill="#c2caff" points="78.02721215233572,31.83672708598572 198.35601012694642,49.863939238321436 201.64398987305358,30.136060761678564 81.97278784766428,8.163272914014275" /><polygon fill="#c2caff" points="201.96116135138183,49.8058067569092 301.96116135138186,29.805806756909202 298.03883864861814,10.194193243090798 198.03883864861817,30.194193243090798" /><polygon fill="#c2caff" points="292.0,26.0 355.20000000000005,103.6 364.79999999999995,96.4 308.0,14.0" /><polygon fill="#c2caff" points="305.14495755427527,28.57492925712544 403.08697453256514,-34.855042445724735 396.91302546743486,-45.144957554275265 294.85504244572473,11.42507074287456" /><polygon fill="lightgray" points="486.0,60.0 606.0,60.0 606.0,-60.0 486.0,-60.0" /><polygon fill="lightgray" points="624.0272121523358,31.83672708598572 744.3560101269464,49.863939238321436 747.9611613513819,49.8058067569092 847.9611613513819,29.805806756909202 844.0388386486181,10.194193243090798 744.0388386486181,30.194193243090798 747.6439898730536,30.136060761678564 627.9727878476642,8.163272914014275" /><polygon fill="lightgray" points="838.0,26.0 901.2,103.6 910.8,96.4 854.0,14.0" /><polygon fill="lightgray" points="851.1449575542753,28.57492925712544 949.0869745325651,-34.855042445724735 942.9130254674349,-45.144957554275265 840.8550424457247,11.42507074287456" /></g><g fill="red" id="points" stroke="red" stroke-width="2.0"><circle cx="0.0" cy="-0.0" fill="white" r="11.0" stroke="black" /><circle cx="140.0" cy="30.0" fill="white" r="11.0" stroke="black" /><circle cx="250.0" cy="30.0" fill="white" r="11.0" stroke="black" /><circle cx="330.0" cy="60.0" fill="white" r="11.0" stroke="black" /><circle cx="350.0" cy="-10.0" fill="white" r="11.0" stroke="black" /><circle cx="677.1127832271659" cy="28.518797204527658" fill="mediumslateblue" r="11.0" stroke="mediumslateblue" /><circle cx="876.0" cy="60.0" fill="mediumslateblue" r="11.0" stroke="mediumslateblue" /><circle cx="896.0" cy="-10.0" fill="mediumslateblue" r="11.0" stroke="mediumslateblue" /></g><g alignment-baseline="middle" id="numbers" text-anchor="middle"><text fill="black" stroke="black" x="0.0" y="6.666666666666667">0</text><text fill="black" stroke="black" x="140.0" y="36.666666666666664">1</text><text fill="black" stroke="black" x="250.0" y="36.666666666666664">2</text><text fill="black" stroke="black" x="330.0" y="66.66666666666667">3</text><text fill="black" stroke="black" x="350.0" y="-3.333333333333333">4</text><text fill="white" stroke="white" x="677.1127832271659" y="35.18546387119432">0</text><text fill="white" stroke="white" x="876.0" y="66.66666666666667">1</text><text fill="white" stroke="white" x="896.0" y="-3.333333333333333">2</text></g></svg>