<svg xmlns="http://www.w3.org/2000/svg" viewBox="0 0 1278.26 821.82"><defs><style>.cls-1{fill:#f6f6f6;}.cls-2{fill:#fff;}</style></defs><title>Bubble</title><g id="Calque_2" data-name="Calque 2"><g id="Calque_1-2" data-name="Calque 1"><circle class="cls-1" cx="64.87" cy="90.29" r="64.87"/><circle class="cls-1" cx="341.17" cy="186.29" r="83.38"/><circle class="cls-1" cx="498.53" cy="642.34" r="83.38"/><circle class="cls-1" cx="753.85" cy="690.34" r="83.38"/><circle class="cls-1" cx="1201.59" cy="751.87" r="69.95"/><circle class="cls-1" cx="973.76" cy="590.99" r="59.1"/><circle class="cls-1" cx="985.14" cy="83.38" r="83.38"/><circle class="cls-1" cx="1207.15" cy="329.24" r="71.11"/><circle class="cls-1" cx="687.86" cy="323.34" r="212.95"/><circle class="cls-1" cx="915.81" cy="329.24" r="105.15"/><path class="cls-2" d="M915.81,241.09a88.15,88.15,0,1,1-88.15,88.15,88.15,88.15,0,0,1,88.15-88.15m0-34a122.14,122.14,0,1,0,86.37,35.78,121.34,121.34,0,0,0-86.37-35.78Z"/></g></g></svg>