<svg xmlns="http://www.w3.org/2000/svg" viewBox="0 0 79.07 79.78"><defs><style>.cls-1{fill:#fff;}.cls-2{fill:#fbb03b;}</style></defs><g id="Layer_2" data-name="Layer 2"><g id="Layer_1-2" data-name="Layer 1"><path class="cls-1" d="M77,18.75V77.82H18V18.75H77m1.69-1.69H16.28V79.51H78.73V17.06Z"/><rect class="cls-2" x="66.12" y="5.6" width="11.6" height="1.69"/><rect class="cls-2" x="77.38" y="0.46" width="1.69" height="11.97"/><rect class="cls-2" x="16.9" y="5.6" width="11.6" height="1.69"/><rect class="cls-2" x="15.78" width="1.69" height="12.89"/><rect class="cls-2" x="5.6" y="17.83" width="1.69" height="11.6"/><rect class="cls-2" x="0.46" y="16.49" width="11.97" height="1.69"/><rect class="cls-2" x="5.6" y="67.05" width="1.69" height="11.6"/><rect class="cls-2" y="78.09" width="12.89" height="1.69"/><path class="cls-2" d="M36.8,8c.06.52-.76.52-.82,0s-.15-1.1-.24-1.65a3.5,3.5,0,0,0-.12-.66c-.1-.21,0-.34-.12,0A7.34,7.34,0,0,0,35.19,7c-.11.48-.23,1-.34,1.43a.41.41,0,0,1-.75.1,9.53,9.53,0,0,1-.74-2.78,9.28,9.28,0,0,0-.77,3.13.41.41,0,0,1-.82,0,40.63,40.63,0,0,1-.19-4.55.41.41,0,0,1,.82,0c0,.53,0,1.06,0,1.59a5.27,5.27,0,0,1,.8-1.42c.22-.27.58-.07.69.18a11.14,11.14,0,0,1,.47,2.15c.09-.4.18-.79.29-1.19s.36-1,.87-1.07.81.57.9,1C36.58,6.42,36.7,7.23,36.8,8Z"/><path class="cls-2" d="M41.28,8.33a.41.41,0,0,1-.79.22,10.05,10.05,0,0,1-.2-1.07,4,4,0,0,1-.45.57c-.71.76-2,1.08-2.52,0-.89-1.79,1.33-4.5,3.15-3.36V4.57c.11-.44.86-.35.81.11a8.05,8.05,0,0,1-.18,1A7.31,7.31,0,0,0,41.28,8.33Zm-1-2.78a.07.07,0,0,1,0,0,.76.76,0,0,1-.18-.09,1.2,1.2,0,0,0-1.71.43c-.32.47-.71,1.46-.27,1.94.59.62,1.43-.67,1.67-1.1A4.52,4.52,0,0,0,40.3,5.55Z"/><path class="cls-2" d="M44.66,8.67A4.07,4.07,0,0,1,43.11,7l0,0-.8,1.15c-.3.43-1,0-.71-.41l1-1.47-1.15-1.7c-.29-.44.42-.85.71-.42l.94,1.4a4.2,4.2,0,0,1,1.17-1.31.41.41,0,0,1,.42.71,4,4,0,0,0-1.1,1.32c.4.61.79,1.41,1.48,1.72C45.55,8.18,45.14,8.89,44.66,8.67Z"/><path class="cls-2" d="M49.76,9,46,9.12c-.52,0-.52-.81,0-.83l3.76-.11A.41.41,0,0,1,49.76,9Z"/><path class="cls-2" d="M51.85,5.25c0,.14.57.32.7.39a3.21,3.21,0,0,1,.5.31,1.63,1.63,0,0,1,.68,1.72c-.45,1.35-2.79,1.22-2.92-.26,0-.53.78-.53.83,0S53,7.83,53,7.26s-.58-.78-.92-1C51.54,6,50.73,5.71,50.94,5c.32-1.11,2.67-1.83,2.9-.29.08.51-.71.74-.79.22C53,4.23,51.72,4.89,51.85,5.25Z"/><path class="cls-2" d="M56.1,8.66c-1.74.74-1.4-3.56-1.36-4.31,0-.53.85-.53.82,0a16.13,16.13,0,0,0,0,1.84c0,.15.08,1.79.33,1.68C56.37,7.67,56.58,8.46,56.1,8.66ZM54.9,2.23a.41.41,0,0,1,.28-.5l.32-.08a.41.41,0,0,1,.22.79l-.32.08A.41.41,0,0,1,54.9,2.23Z"/><path class="cls-2" d="M60.19,8.32c-.29.33-.77.24-1.17.23l-2-.05a.41.41,0,0,1-.21-.76c.56-.34.77-1.33,1.11-1.87a6.41,6.41,0,0,1,.81-1.07l-1.64-.06c-.53,0-.53-.85,0-.82l2.6.1c.34,0,.58.46.29.7a7.11,7.11,0,0,0-1.64,2.06c-.16.31-.28.63-.44.92h.51c.19,0,1.06.14,1.16,0C60,7.34,60.54,7.93,60.19,8.32Z"/><path class="cls-2" d="M64.06,8.4a1.88,1.88,0,0,1-3-.38,3.38,3.38,0,0,1,.35-3.75c.83-.8,2.55-.61,2.64.74A1.83,1.83,0,0,1,61.5,6.66a2.39,2.39,0,0,0,.31,1,1,1,0,0,0,1.66.15C63.84,7.44,64.43,8,64.06,8.4ZM61.55,5.74s0,.08,0,.12a.41.41,0,0,1,.28,0c.74.37,2-.73,1.12-1.24C62.23,4.27,61.66,5.17,61.55,5.74Z"/><path class="cls-2" d="M8.08,59.39c.52-.06.51.76,0,.82s-1.1.15-1.65.25a2.41,2.41,0,0,0-.66.12c-.22.09-.35,0,0,.11A6.38,6.38,0,0,0,7,61l1.43.34a.41.41,0,0,1,.1.75,9.53,9.53,0,0,1-2.78.74,9.28,9.28,0,0,0,3.13.77.41.41,0,0,1,0,.82,40.64,40.64,0,0,1-4.55.2.42.42,0,0,1,0-.83c.53,0,1.06,0,1.58,0A5.38,5.38,0,0,1,4.54,63c-.27-.22-.07-.58.18-.69a11.2,11.2,0,0,1,2.14-.47c-.39-.09-.79-.18-1.18-.29s-1-.36-1.07-.87.57-.81,1-.9C6.46,59.61,7.27,59.49,8.08,59.39Z"/><path class="cls-2" d="M8.37,54.91a.41.41,0,0,1,.22.79,8,8,0,0,1-1.07.2,3.45,3.45,0,0,1,.56.45c.77.71,1.09,2,0,2.53-1.8.88-4.51-1.34-3.36-3.15l-.08,0c-.44-.11-.36-.86.11-.81a8.05,8.05,0,0,1,1,.18A7.31,7.31,0,0,0,8.37,54.91Zm-2.78,1H5.53a.31.31,0,0,1-.09.18,1.2,1.2,0,0,0,.44,1.71c.46.32,1.45.72,1.94.27s-.67-1.42-1.1-1.67A4.86,4.86,0,0,0,5.59,55.89Z"/><path class="cls-2" d="M8.71,51.53A4,4,0,0,1,7,53.08l0,0c.38.27.76.54,1.15.8s0,1-.42.71l-1.46-1-1.7,1.15c-.44.29-.85-.42-.42-.71l1.39-.94a4.17,4.17,0,0,1-1.3-1.17c-.28-.45.43-.87.71-.42a4,4,0,0,0,1.32,1.1c.61-.4,1.41-.79,1.72-1.48C8.22,50.64,8.93,51.06,8.71,51.53Z"/><path class="cls-2" d="M9,46.43c0,1.25.08,2.5.11,3.76,0,.53-.8.52-.82,0,0-1.26-.07-2.51-.11-3.76C8.2,45.9,9,45.9,9,46.43Z"/><path class="cls-2" d="M5.29,44.34c.14-.05.31-.57.38-.7a5.29,5.29,0,0,1,.32-.5,1.63,1.63,0,0,1,1.72-.68c1.35.45,1.21,2.79-.26,2.92-.53,0-.53-.78,0-.82s.42-1.32-.15-1.33-.78.57-1,.91c-.27.51-.59,1.32-1.31,1.11-1.12-.32-1.83-2.67-.29-2.9.51-.08.73.71.21.79C4.27,43.24,4.93,44.47,5.29,44.34Z"/><path class="cls-2" d="M2.27,41.29a.41.41,0,0,1-.5-.28c0-.11-.06-.21-.08-.32a.41.41,0,0,1,.28-.5.42.42,0,0,1,.51.28c0,.11,0,.21.08.32A.41.41,0,0,1,2.27,41.29Zm6.43-1.2c.73,1.74-3.56,1.4-4.32,1.36-.52,0-.52-.85,0-.82s1.23,0,1.85,0c.15,0,1.78-.08,1.68-.34C7.7,39.82,8.5,39.61,8.7,40.09Z"/><path class="cls-2" d="M8.36,36c.33.29.23.77.22,1.17,0,.65,0,1.31,0,2a.41.41,0,0,1-.76.2c-.34-.56-1.33-.77-1.87-1.1a7.71,7.71,0,0,1-1.07-.81l-.06,1.63c0,.53-.85.53-.83,0,0-.87.08-1.73.11-2.6,0-.33.46-.58.7-.29a6.85,6.85,0,0,0,2.06,1.64c.3.16.63.28.92.44v-.5c0-.2.14-1.07,0-1.17C7.38,36.23,8,35.65,8.36,36Z"/><path class="cls-2" d="M8.44,32.14a1.87,1.87,0,0,1-.38,3,3.36,3.36,0,0,1-3.75-.35c-.8-.82-.61-2.55.74-2.64A1.84,1.84,0,0,1,6.7,34.69a2.3,2.3,0,0,0,1-.31,1,1,0,0,0,.15-1.66C7.48,32.35,8.06,31.77,8.44,32.14Zm-2.67,2.5.13,0a.41.41,0,0,1,0-.28c.37-.74-.73-2-1.24-1.12C4.31,34,5.21,34.53,5.77,34.64Z"/></g></g></svg>