<svg xmlns="http://www.w3.org/2000/svg" viewBox="0 0 79.16 79.76"><defs><style>.cls-1{fill:#fff;}.cls-2{fill:#fbb03b;}</style></defs><g id="Layer_2" data-name="Layer 2"><g id="Layer_1-2" data-name="Layer 1"><path class="cls-1" d="M77.14,18.75V77.82H18.06V18.75H77.14m1.68-1.69H16.38V79.51H78.82V17.06Z"/><rect class="cls-2" x="64.93" y="5.6" width="12.89" height="1.69"/><rect class="cls-2" x="77.47" y="0.46" width="1.69" height="11.97"/><rect class="cls-2" x="17.25" y="5.6" width="13.88" height="1.69"/><rect class="cls-2" x="15.87" width="1.69" height="12.89"/><rect class="cls-2" x="5.6" y="17.81" width="1.69" height="12.89"/><rect class="cls-2" x="0.46" y="16.47" width="11.97" height="1.69"/><rect class="cls-2" x="5.6" y="64.51" width="1.69" height="13.88"/><rect class="cls-2" y="78.07" width="12.89" height="1.69"/><path class="cls-2" d="M37.19,7.85c.07.52-.76.52-.82,0s-.15-1.1-.24-1.65A3.4,3.4,0,0,0,36,5.55c-.1-.22,0-.35-.12,0a7.24,7.24,0,0,0-.31,1.3l-.33,1.43a.42.42,0,0,1-.75.09,8.94,8.94,0,0,1-.74-2.78A9.07,9.07,0,0,0,33,8.69a.41.41,0,0,1-.82,0A40.63,40.63,0,0,1,32,4.14a.41.41,0,0,1,.82,0c0,.53,0,1.06,0,1.59a5.56,5.56,0,0,1,.8-1.42c.22-.27.59-.06.69.18a11.16,11.16,0,0,1,.48,2.15c.08-.4.18-.79.28-1.18s.36-1,.87-1.08.81.57.9,1.06C37,6.24,37.09,7,37.19,7.85Z"/><path class="cls-2" d="M39.42,8.47c-1.74.74-1.4-3.56-1.36-4.31,0-.53.84-.53.82,0s0,1.22,0,1.84c0,.15.08,1.79.33,1.68C39.69,7.48,39.9,8.27,39.42,8.47Zm-1.2-6.42a.41.41,0,0,1,.28-.51l.32-.08a.41.41,0,0,1,.5.29.41.41,0,0,1-.29.5l-.31.08A.41.41,0,0,1,38.22,2.05Z"/><path class="cls-2" d="M44.14,8.05c.09.52-.71.74-.79.22s-.16-1.06-.25-1.59c-.06-.37,0-1.34-.59-1.16s-.62.78-.75,1.17l-.45,1.49a.41.41,0,0,1-.8-.11c-.1-1.28-.16-2.56-.18-3.85a.41.41,0,0,1,.82,0c0,.54,0,1.07.05,1.61a1.89,1.89,0,0,1,1.4-1.2,1,1,0,0,1,1.13.78A25.88,25.88,0,0,1,44.14,8.05Z"/><path class="cls-2" d="M48.76,8.81,45,8.93a.42.42,0,0,1,0-.83L48.76,8A.41.41,0,0,1,48.76,8.81Z"/><path class="cls-2" d="M50.85,5.07c0,.13.58.31.7.38a2.65,2.65,0,0,1,.5.32,1.62,1.62,0,0,1,.68,1.71c-.45,1.35-2.79,1.22-2.91-.26,0-.53.77-.52.82,0S52,7.64,52,7.07s-.57-.77-.92-1c-.51-.27-1.32-.59-1.11-1.31.32-1.11,2.67-1.83,2.91-.29.07.52-.72.74-.8.22C52,4,50.72,4.7,50.85,5.07Z"/><path class="cls-2" d="M55.11,8.47c-1.74.74-1.41-3.56-1.37-4.31,0-.53.85-.53.82,0s0,1.22,0,1.84c0,.15.08,1.79.33,1.68C55.37,7.48,55.59,8.27,55.11,8.47ZM53.9,2.05a.42.42,0,0,1,.29-.51l.31-.08a.42.42,0,0,1,.51.29.41.41,0,0,1-.29.5l-.32.08A.41.41,0,0,1,53.9,2.05Z"/><path class="cls-2" d="M59.2,8.13c-.3.33-.77.24-1.17.23l-2,0a.41.41,0,0,1-.21-.76c.56-.33.77-1.33,1.11-1.87a6.92,6.92,0,0,1,.81-1.06l-1.64-.07c-.53,0-.53-.84,0-.82l2.61.1a.42.42,0,0,1,.29.71,6.81,6.81,0,0,0-1.65,2.05c-.16.31-.28.63-.44.92h.51c.19,0,1.06.15,1.16,0C59,7.15,59.55,7.74,59.2,8.13Z"/><path class="cls-2" d="M63.06,8.21a1.88,1.88,0,0,1-3-.38,3.38,3.38,0,0,1,.35-3.75c.83-.79,2.55-.61,2.64.74A1.83,1.83,0,0,1,60.5,6.47a2.35,2.35,0,0,0,.31,1,1,1,0,0,0,1.67.15C62.85,7.25,63.43,7.84,63.06,8.21ZM60.55,5.55s0,.08,0,.12a.4.4,0,0,1,.28,0c.74.37,2-.73,1.12-1.24C61.23,4.08,60.66,5,60.55,5.55Z"/><path class="cls-2" d="M7.77,57.51c.53-.06.52.76,0,.82s-1.1.15-1.65.24a3.4,3.4,0,0,0-.65.12c-.22.1-.35,0,0,.12a6.94,6.94,0,0,0,1.29.31l1.43.33a.42.42,0,0,1,.1.76A9.59,9.59,0,0,1,5.48,61a9.4,9.4,0,0,0,3.14.77.41.41,0,0,1,0,.82,40.73,40.73,0,0,1-4.55.19.41.41,0,0,1,0-.82c.52,0,1,0,1.58,0a5.22,5.22,0,0,1-1.41-.8c-.28-.22-.07-.59.18-.69a11,11,0,0,1,2.14-.47l-1.18-.29c-.43-.12-1-.36-1.07-.87s.57-.81,1.05-.9C6.16,57.73,7,57.61,7.77,57.51Z"/><path class="cls-2" d="M2,56.49a.43.43,0,0,1-.51-.29c0-.1-.05-.21-.08-.31a.42.42,0,0,1,.29-.51.41.41,0,0,1,.5.29l.09.31A.44.44,0,0,1,2,56.49ZM8.4,55.28c.73,1.74-3.56,1.4-4.32,1.37-.53,0-.53-.85,0-.83s1.23,0,1.84,0c.16,0,1.79-.08,1.69-.33C7.4,55,8.2,54.8,8.4,55.28Z"/><path class="cls-2" d="M8,50.56c.52-.08.74.71.22.79L6.6,51.6c-.36.06-1.33,0-1.15.59s.77.62,1.16.75,1,.3,1.5.45A.41.41,0,0,1,8,54.2c-1.29.09-2.57.15-3.86.17a.41.41,0,0,1,0-.82l1.61,0a1.86,1.86,0,0,1-1.19-1.4A1,1,0,0,1,5.33,51,26.32,26.32,0,0,1,8,50.56Z"/><path class="cls-2" d="M8.74,45.94c0,1.25.07,2.5.11,3.76,0,.52-.81.52-.82,0,0-1.26-.08-2.51-.11-3.76C7.9,45.41,8.72,45.41,8.74,45.94Z"/><path class="cls-2" d="M5,43.85c.13-.05.31-.57.38-.7a4.26,4.26,0,0,1,.32-.5A1.63,1.63,0,0,1,7.4,42c1.35.45,1.22,2.79-.26,2.92-.52,0-.52-.78,0-.83s.43-1.32-.14-1.33-.78.58-1,.92c-.27.51-.58,1.32-1.3,1.11-1.12-.32-1.84-2.67-.3-2.9.52-.08.74.71.22.79C4,42.75,4.63,44,5,43.85Z"/><path class="cls-2" d="M2,40.8a.42.42,0,0,1-.51-.28c0-.11-.05-.21-.08-.32a.41.41,0,0,1,.29-.5.4.4,0,0,1,.5.28l.09.32A.43.43,0,0,1,2,40.8ZM8.4,39.6C9.13,41.34,4.84,41,4.08,41c-.53,0-.53-.85,0-.82a16.14,16.14,0,0,0,1.84,0c.16,0,1.79-.08,1.69-.33C7.4,39.33,8.2,39.12,8.4,39.6Z"/><path class="cls-2" d="M8.05,35.51c.34.29.24.77.23,1.17l0,2a.42.42,0,0,1-.77.21c-.33-.56-1.33-.77-1.87-1.1a7,7,0,0,1-1.06-.82c0,.55,0,1.1-.07,1.64s-.84.53-.82,0c0-.87.07-1.74.11-2.6a.41.41,0,0,1,.7-.29,6.94,6.94,0,0,0,2.05,1.64c.31.16.63.28.93.44v-.5c0-.2.14-1.07,0-1.17C7.08,35.73,7.66,35.16,8.05,35.51Z"/><path class="cls-2" d="M8.14,31.64a1.88,1.88,0,0,1-.39,3A3.36,3.36,0,0,1,4,34.29c-.8-.82-.61-2.55.73-2.64A1.83,1.83,0,0,1,6.39,34.2a2.3,2.3,0,0,0,1-.31,1,1,0,0,0,.15-1.66C7.18,31.86,7.76,31.27,8.14,31.64ZM5.47,34.15l.13,0a.4.4,0,0,1,0-.28c.37-.74-.72-2-1.23-1.12C4,33.47,4.91,34,5.47,34.15Z"/></g></g></svg>